{
  "accessors": [
    {
      "bufferView": 2,
      "componentType": 5126,
      "count": 65532,
      "max": [
        14.662094116210938,
        10.336332321166992,
        12.238432884216309
      ],
      "min": [
        -11.002219200134277,
        -13.193110466003418,
        0.9165782928466797
      ],
      "type": "VEC3"
    },
    {
      "bufferView": 2,
      "byteOffset": 786384,
      "componentType": 5126,
      "count": 65532,
      "max": [
        0.9999982118606567,
        0.9998533725738525,
        0.9999973773956299
      ],
      "min": [
        -0.9999970197677612,
        -0.999998927116394,
        -0.9999009370803833
      ],
      "type": "VEC3"
    },
    {
      "bufferView": 1,
      "componentType": 5126,
      "count": 65532,
      "max": [
        0.9997404217720032,
        0.9967752695083618
      ],
      "min": [
        0.000244140625,
        0.005127072334289551
      ],
      "type": "VEC2"
    },
    {
      "bufferView": 0,
      "componentType": 5125,
      "count": 65544,
      "type": "SCALAR"
    },
    {
      "bufferView": 2,
      "byteOffset": 1572768,
      "componentType": 5126,
      "count": 65532,
      "max": [
        14.671907424926758,
        11.306839942932129,
        8.444313049316406
      ],
      "min": [
        -11.3756685256958,
        -13.014362335205078,
        1.193973422050476
      ],
      "type": "VEC3"
    },
    {
      "bufferView": 2,
      "byteOffset": 2359152,
      "componentType": 5126,
      "count": 65532,
      "max": [
        0.999991774559021,
        0.9999977350234985,
        0.9999995231628418
      ],
      "min": [
        -0.9999958276748657,
        -0.9999971389770508,
        -0.9978718161582947
      ],
      "type": "VEC3"
    },
    {
      "bufferView": 1,
      "byteOffset": 524256,
      "componentType": 5126,
      "count": 65532,
      "max": [
        0.9997501373291016,
        0.9976245760917664
      ],
      "min": [
        0.000244140625,
        0.09204113483428955
      ],
      "type": "VEC2"
    },
    {
      "bufferView": 0,
      "byteOffset": 262176,
      "componentType": 5125,
      "count": 65544,
      "type": "SCALAR"
    },
    {
      "bufferView": 2,
      "byteOffset": 3145536,
      "componentType": 5126,
      "count": 65532,
      "max": [
        14.668620109558105,
        11.307283401489258,
        9.769547462463379
      ],
      "min": [
        -7.669013500213623,
        2.1640000343322754,
        1.7713967561721802
      ],
      "type": "VEC3"
    },
    {
      "bufferView": 2,
      "byteOffset": 3931920,
      "componentType": 5126,
      "count": 65532,
      "max": [
        0.9999843835830688,
        0.9999995231628418,
        0.9999992847442627
      ],
      "min": [
        -0.9999924898147583,
        -0.9999969005584717,
        -0.9998853206634521
      ],
      "type": "VEC3"
    },
    {
      "bufferView": 1,
      "byteOffset": 1048512,
      "componentType": 5126,
      "count": 65532,
      "max": [
        0.9997134804725647,
        0.9977869391441345
      ],
      "min": [
        0.000244140625,
        0.15356457233428955
      ],
      "type": "VEC2"
    },
    {
      "bufferView": 0,
      "byteOffset": 524352,
      "componentType": 5125,
      "count": 65544,
      "type": "SCALAR"
    },
    {
      "bufferView": 2,
      "byteOffset": 4718304,
      "componentType": 5126,
      "count": 65533,
      "max": [
        13.876260757446289,
        11.285280227661133,
        10.07168960571289
      ],
      "min": [
        -12.69650936126709,
        -13.51596736907959,
        1.4041082859039307
      ],
      "type": "VEC3"
    },
    {
      "bufferView": 2,
      "byteOffset": 5504700,
      "componentType": 5126,
      "count": 65533,
      "max": [
        0.9999996423721313,
        0.9999964237213135,
        0.9999990463256836
      ],
      "min": [
        -0.9999884366989136,
        -0.9999992847442627,
        -0.9999879598617554
      ],
      "type": "VEC3"
    },
    {
      "bufferView": 1,
      "byteOffset": 1572768,
      "componentType": 5126,
      "count": 65533,
      "max": [
        0.9997121691703796,
        0.9997390508651733
      ],
      "min": [
        0.000244140625,
        0.2278849482536316
      ],
      "type": "VEC2"
    },
    {
      "bufferView": 0,
      "byteOffset": 786528,
      "componentType": 5125,
      "count": 65547,
      "type": "SCALAR"
    },
    {
      "bufferView": 2,
      "byteOffset": 6291096,
      "componentType": 5126,
      "count": 65534,
      "max": [
        14.297148704528809,
        9.435328483581543,
        10.155928611755371
      ],
      "min": [
        -12.771350860595703,
        -13.395551681518555,
        0.8616761565208435
      ],
      "type": "VEC3"
    },
    {
      "bufferView": 2,
      "byteOffset": 7077504,
      "componentType": 5126,
      "count": 65534,
      "max": [
        0.9999990463256836,
        0.9999991655349731,
        0.9999994039535522
      ],
      "min": [
        -0.9999825954437256,
        -0.9999904632568359,
        -0.9996972680091858
      ],
      "type": "VEC3"
    },
    {
      "bufferView": 1,
      "byteOffset": 2097032,
      "componentType": 5126,
      "count": 65534,
      "max": [
        0.9997311234474182,
        0.999858558177948
      ],
      "min": [
        0.000244140625,
        0.6906739473342896
      ],
      "type": "VEC2"
    },
    {
      "bufferView": 0,
      "byteOffset": 1048716,
      "componentType": 5125,
      "count": 65688,
      "type": "SCALAR"
    },
    {
      "bufferView": 2,
      "byteOffset": 7863912,
      "componentType": 5126,
      "count": 65534,
      "max": [
        14.297148704528809,
        8.865509033203125,
        9.896032333374023
      ],
      "min": [
        -12.962154388427734,
        -12.076440811157227,
        1.6761670112609863
      ],
      "type": "VEC3"
    },
    {
      "bufferView": 2,
      "byteOffset": 8650320,
      "componentType": 5126,
      "count": 65534,
      "max": [
        0.9999934434890747,
        0.9999997615814209,
        0.9999914169311523
      ],
      "min": [
        -0.9999973773956299,
        -0.9999945163726807,
        -0.9998832941055298
      ],
      "type": "VEC3"
    },
    {
      "bufferView": 1,
      "byteOffset": 2621304,
      "componentType": 5126,
      "count": 65534,
      "max": [
        0.9997464418411255,
        0.9998622536659241
      ],
      "min": [
        0.000244140625,
        0.7429012060165405
      ],
      "type": "VEC2"
    },
    {
      "bufferView": 0,
      "byteOffset": 1311468,
      "componentType": 5125,
      "count": 65550,
      "type": "SCALAR"
    },
    {
      "bufferView": 2,
      "byteOffset": 9436728,
      "componentType": 5126,
      "count": 65532,
      "max": [
        14.291043281555176,
        4.1173624992370605,
        12.73740005493164
      ],
      "min": [
        -13.591833114624023,
        -12.572632789611816,
        1.711422085762024
      ],
      "type": "VEC3"
    },
    {
      "bufferView": 2,
      "byteOffset": 10223112,
      "componentType": 5126,
      "count": 65532,
      "max": [
        0.999997615814209,
        0.9999743700027466,
        0.9999998807907104
      ],
      "min": [
        -0.9999872446060181,
        -0.9999971389770508,
        -0.99958735704422
      ],
      "type": "VEC3"
    },
    {
      "bufferView": 1,
      "byteOffset": 3145576,
      "componentType": 5126,
      "count": 65532,
      "max": [
        0.9997445344924927,
        0.9997223019599915
      ],
      "min": [
        0.000244140625,
        0.5080567598342896
      ],
      "type": "VEC2"
    },
    {
      "bufferView": 0,
      "byteOffset": 1573668,
      "componentType": 5125,
      "count": 65532,
      "type": "SCALAR"
    },
    {
      "bufferView": 2,
      "byteOffset": 11009496,
      "componentType": 5126,
      "count": 65532,
      "max": [
        9.976591110229492,
        8.647320747375488,
        12.73740005493164
      ],
      "min": [
        -13.365669250488281,
        -12.873056411743164,
        1.990464448928833
      ],
      "type": "VEC3"
    },
    {
      "bufferView": 2,
      "byteOffset": 11795880,
      "componentType": 5126,
      "count": 65532,
      "max": [
        0.9999853372573853,
        0.9999997615814209,
        0.9999948740005493
      ],
      "min": [
        -0.9999877214431763,
        -0.9999780654907227,
        -0.9990803599357605
      ],
      "type": "VEC3"
    },
    {
      "bufferView": 1,
      "byteOffset": 3669832,
      "componentType": 5126,
      "count": 65532,
      "max": [
        0.9997535347938538,
        0.9997531771659851
      ],
      "min": [
        0.000244140625,
        0.39379894733428955
      ],
      "type": "VEC2"
    },
    {
      "bufferView": 0,
      "byteOffset": 1835796,
      "componentType": 5125,
      "count": 65538,
      "type": "SCALAR"
    },
    {
      "bufferView": 2,
      "byteOffset": 12582264,
      "componentType": 5126,
      "count": 65533,
      "max": [
        14.702011108398438,
        11.307826042175293,
        9.833075523376465
      ],
      "min": [
        -13.27938175201416,
        -13.176002502441406,
        0.9097026586532593
      ],
      "type": "VEC3"
    },
    {
      "bufferView": 2,
      "byteOffset": 13368660,
      "componentType": 5126,
      "count": 65533,
      "max": [
        0.9999551773071289,
        0.9999990463256836,
        1.0
      ],
      "min": [
        -0.9999985694885254,
        -0.9999990463256836,
        -0.9999889135360718
      ],
      "type": "VEC3"
    },
    {
      "bufferView": 1,
      "byteOffset": 4194088,
      "componentType": 5126,
      "count": 65533,
      "max": [
        0.999708890914917,
        0.999743640422821
      ],
      "min": [
        0.000244140625,
        0.2923628091812134
      ],
      "type": "VEC2"
    },
    {
      "bufferView": 0,
      "byteOffset": 2097948,
      "componentType": 5125,
      "count": 65637,
      "type": "SCALAR"
    },
    {
      "bufferView": 2,
      "byteOffset": 14155056,
      "componentType": 5126,
      "count": 363,
      "max": [
        -4.555270195007324,
        11.283977508544922,
        4.489068508148193
      ],
      "min": [
        -12.453392028808594,
        7.152955532073975,
        2.423832893371582
      ],
      "type": "VEC3"
    },
    {
      "bufferView": 2,
      "byteOffset": 14159412,
      "componentType": 5126,
      "count": 363,
      "max": [
        0.9872532486915588,
        0.994218647480011,
        0.9997234344482422
      ],
      "min": [
        -0.8851412534713745,
        -0.9883108735084534,
        -0.5600783228874207
      ],
      "type": "VEC3"
    },
    {
      "bufferView": 1,
      "byteOffset": 4718352,
      "componentType": 5126,
      "count": 363,
      "max": [
        0.9896965622901917,
        0.7819201946258545
      ],
      "min": [
        0.04716543108224869,
        0.29516613483428955
      ],
      "type": "VEC2"
    },
    {
      "bufferView": 0,
      "byteOffset": 2360496,
      "componentType": 5125,
      "count": 363,
      "type": "SCALAR"
    },
    {
      "bufferView": 2,
      "byteOffset": 14163768,
      "componentType": 5126,
      "count": 1811,
      "max": [
        14.70201301574707,
        11.333646774291992,
        6.936695098876953
      ],
      "min": [
        -13.591833114624023,
        -13.51596736907959,
        0.763152003288269
      ],
      "type": "VEC3"
    },
    {
      "bufferView": 2,
      "byteOffset": 14185500,
      "componentType": 5126,
      "count": 1811,
      "max": [
        0.9992591738700867,
        0.9998703002929688,
        0.7819125056266785
      ],
      "min": [
        -0.9999151229858398,
        -0.9997938275337219,
        -0.9998863935470581
      ],
      "type": "VEC3"
    },
    {
      "bufferView": 1,
      "byteOffset": 4721256,
      "componentType": 5126,
      "count": 1811,
      "max": [
        0.9993722438812256,
        0.9993723630905151
      ],
      "min": [
        0.000244140625,
        0.07934582233428955
      ],
      "type": "VEC2"
    },
    {
      "bufferView": 0,
      "byteOffset": 2361948,
      "componentType": 5125,
      "count": 2778,
      "type": "SCALAR"
    }
  ],
  "asset": {
    "extras": {
      "author": "Christians - The Survey Company (https://sketchfab.com/ChristiansTheSurveyCompany)",
      "license": "CC-BY-4.0 (http://creativecommons.org/licenses/by/4.0/)",
      "source": "https://sketchfab.com/3d-models/british-stone-house-free-model-download-d5a55c0b7f504853bb19d981c03dfcaf",
      "title": "British Stone House Free Model Download"
    },
    "generator": "Sketchfab-16.52.0",
    "version": "2.0"
  },
  "bufferViews": [
    {
      "buffer": 0,
      "byteLength": 2373060,
      "name": "floatBufferViews",
      "target": 34963
    },
    {
      "buffer": 0,
      "byteLength": 4735744,
      "byteOffset": 2373060,
      "byteStride": 8,
      "name": "floatBufferViews",
      "target": 34962
    },
    {
      "buffer": 0,
      "byteLength": 14207232,
      "byteOffset": 7108804,
      "byteStride": 12,
      "name": "floatBufferViews",
      "target": 34962
    }
  ],
  "buffers": [
    {
      "byteLength": 21316036,
      "uri": "scene.bin"
    }
  ],
  "extensionsUsed": [
    "KHR_materials_specular"
  ],
  "images": [
    {
      "uri": "textures/default_tex0_baseColor.jpeg"
    }
  ],
  "materials": [
    {
      "extensions": {
        "KHR_materials_specular": {
          "specularColorFactor": [
            1.0,
            1.0,
            1.0
          ],
          "specularFactor": 0.09773415640956182
        }
      },
      "name": "default_tex0",
      "pbrMetallicRoughness": {
        "baseColorTexture": {
          "index": 0
        },
        "metallicFactor": 0.0
      }
    },
    {
      "doubleSided": true,
      "extensions": {
        "KHR_materials_specular": {
          "specularColorFactor": [
            1.0,
            1.0,
            1.0
          ],
          "specularFactor": 0.0
        }
      },
      "name": "Material.001",
      "pbrMetallicRoughness": {
        "baseColorFactor": [
          0.0246465,
          0.0246465,
          0.0246465,
          1.0
        ],
        "metallicFactor": 0.0,
        "roughnessFactor": 0.0
      }
    }
  ],
  "meshes": [
    {
      "name": "Object_0",
      "primitives": [
        {
          "attributes": {
            "NORMAL": 1,
            "POSITION": 0,
            "TEXCOORD_0": 2
          },
          "indices": 3,
          "material": 0,
          "mode": 4
        }
      ]
    },
    {
      "name": "Object_1",
      "primitives": [
        {
          "attributes": {
            "NORMAL": 5,
            "POSITION": 4,
            "TEXCOORD_0": 6
          },
          "indices": 7,
          "material": 0,
          "mode": 4
        }
      ]
    },
    {
      "name": "Object_2",
      "primitives": [
        {
          "attributes": {
            "NORMAL": 9,
            "POSITION": 8,
            "TEXCOORD_0": 10
          },
          "indices": 11,
          "material": 0,
          "mode": 4
        }
      ]
    },
    {
      "name": "Object_3",
      "primitives": [
        {
          "attributes": {
            "NORMAL": 13,
            "POSITION": 12,
            "TEXCOORD_0": 14
          },
          "indices": 15,
          "material": 0,
          "mode": 4
        }
      ]
    },
    {
      "name": "Object_4",
      "primitives": [
        {
          "attributes": {
            "NORMAL": 17,
            "POSITION": 16,
            "TEXCOORD_0": 18
          },
          "indices": 19,
          "material": 0,
          "mode": 4
        }
      ]
    },
    {
      "name": "Object_5",
      "primitives": [
        {
          "attributes": {
            "NORMAL": 21,
            "POSITION": 20,
            "TEXCOORD_0": 22
          },
          "indices": 23,
          "material": 0,
          "mode": 4
        }
      ]
    },
    {
      "name": "Object_6",
      "primitives": [
        {
          "attributes": {
            "NORMAL": 25,
            "POSITION": 24,
            "TEXCOORD_0": 26
          },
          "indices": 27,
          "material": 0,
          "mode": 4
        }
      ]
    },
    {
      "name": "Object_7",
      "primitives": [
        {
          "attributes": {
            "NORMAL": 29,
            "POSITION": 28,
            "TEXCOORD_0": 30
          },
          "indices": 31,
          "material": 0,
          "mode": 4
        }
      ]
    },
    {
      "name": "Object_8",
      "primitives": [
        {
          "attributes": {
            "NORMAL": 33,
            "POSITION": 32,
            "TEXCOORD_0": 34
          },
          "indices": 35,
          "material": 0,
          "mode": 4
        }
      ]
    },
    {
      "name": "Object_9",
      "primitives": [
        {
          "attributes": {
            "NORMAL": 37,
            "POSITION": 36,
            "TEXCOORD_0": 38
          },
          "indices": 39,
          "material": 0,
          "mode": 4
        }
      ]
    },
    {
      "name": "Object_10",
      "primitives": [
        {
          "attributes": {
            "NORMAL": 41,
            "POSITION": 40,
            "TEXCOORD_0": 42
          },
          "indices": 43,
          "material": 1,
          "mode": 4
        }
      ]
    }
  ],
  "nodes": [
    {
      "children": [
        1
      ],
      "matrix": [
        1.0,
        0.0,
        0.0,
        0.0,
        0.0,
        2.220446049250313e-16,
        -1.0,
        0.0,
        0.0,
        1.0,
        2.220446049250313e-16,
        0.0,
        0.0,
        0.0,
        0.0,
        1.0
      ],
      "name": "Sketchfab_model"
    },
    {
      "children": [
        2
      ],
      "name": "root"
    },
    {
      "children": [
        3
      ],
      "matrix": [
        1.0,
        0.0,
        0.0,
        0.0,
        0.0,
        2.220446049250313e-16,
        1.0,
        0.0,
        0.0,
        -1.0,
        2.220446049250313e-16,
        0.0,
        0.0,
        0.0,
        0.0,
        1.0
      ],
      "name": "GLTF_SceneRootNode"
    },
    {
      "children": [
        4,
        5,
        6,
        7,
        8,
        9,
        10,
        11,
        12,
        13,
        14
      ],
      "matrix": [
        -0.9998881947409843,
        0.014952932662498796,
        -8.844436536742384e-05,
        0.0,
        -6.589566651121238e-05,
        0.0015084643279876797,
        0.9999988600959163,
        0.0,
        0.014953049032759961,
        0.9998870607924485,
        -0.0015073103402785115,
        0.0,
        0.0,
        -1.0,
        0.0,
        1.0
      ],
      "name": "Mesh_0_Part_0_0"
    },
    {
      "mesh": 0,
      "name": "Object_4"
    },
    {
      "mesh": 1,
      "name": "Object_5"
    },
    {
      "mesh": 2,
      "name": "Object_6"
    },
    {
      "mesh": 3,
      "name": "Object_7"
    },
    {
      "mesh": 4,
      "name": "Object_8"
    },
    {
      "mesh": 5,
      "name": "Object_9"
    },
    {
      "mesh": 6,
      "name": "Object_10"
    },
    {
      "mesh": 7,
      "name": "Object_11"
    },
    {
      "mesh": 8,
      "name": "Object_12"
    },
    {
      "mesh": 9,
      "name": "Object_13"
    },
    {
      "mesh": 10,
      "name": "Object_14"
    }
  ],
  "samplers": [
    {
      "magFilter": 9729,
      "minFilter": 9987,
      "wrapS": 33071,
      "wrapT": 33071
    }
  ],
  "scene": 0,
  "scenes": [
    {
      "name": "Sketchfab_Scene",
      "nodes": [
        0
      ]
    }
  ],
  "textures": [
    {
      "sampler": 0,
      "source": 0
    }
  ]
}
